<svg width="61" height="60" viewBox="0 0 61 60" fill="none" xmlns="http://www.w3.org/2000/svg">
<path opacity="0.8" fill-rule="evenodd" clip-rule="evenodd" d="M0.490479 3C0.490479 1.34315 1.83261 0 3.48821 0H24.4723C26.1279 0 27.47 1.34315 27.47 3V19.5C27.47 21.1569 26.1279 22.5 24.4723 22.5H3.48821C1.83261 22.5 0.490479 21.1569 0.490479 19.5V3ZM6.48594 6V16.5H21.4746V6H6.48594ZM33.4655 3C33.4655 1.34315 34.8076 0 36.4632 0H57.4473C59.1029 0 60.4451 1.34315 60.4451 3V28.5C60.4451 30.1569 59.1029 31.5 57.4473 31.5H36.4632C34.8076 31.5 33.4655 30.1569 33.4655 28.5V3ZM39.461 6V25.5H54.4496V6H39.461ZM0.490479 31.5C0.490479 29.8431 1.83261 28.5 3.48821 28.5H24.4723C26.1279 28.5 27.47 29.8431 27.47 31.5V57C27.47 58.6569 26.1279 60 24.4723 60H3.48821C1.83261 60 0.490479 58.6569 0.490479 57V31.5ZM6.48594 34.5V54H21.4746V34.5H6.48594ZM33.4655 40.5C33.4655 38.8431 34.8076 37.5 36.4632 37.5H57.4473C59.1029 37.5 60.4451 38.8431 60.4451 40.5V57C60.4451 58.6569 59.1029 60 57.4473 60H36.4632C34.8076 60 33.4655 58.6569 33.4655 57V40.5ZM39.461 43.5V54H54.4496V43.5H39.461Z" fill="#F9B247"/>
</svg>
