<svg width="209" height="61" viewBox="0 0 209 61" fill="none" xmlns="http://www.w3.org/2000/svg">
<path d="M52.6108 32.9867C49.0064 32.9867 46.1016 36.7122 46.1016 41.3026V60.2444H74.3569C74.3569 60.2444 74.3932 56.5984 74.3932 56.2251C74.3932 55.8573 74.1852 55.6781 73.9568 55.6707C73.7357 55.6603 55.4472 55.6707 55.4472 55.6707V48.9256H71.5204V44.9524C71.5204 44.6105 71.3502 44.398 71.084 44.398H55.4472V37.5143H74.3569V33.4487C74.3569 33.0828 74.1852 32.9867 73.9568 32.9867H52.6108H52.6108ZM84.7208 32.9867C81.1236 32.9867 78.2116 36.7122 78.2116 41.3026V60.2444H106.721V44.9524C106.721 44.6641 106.505 44.398 106.285 44.398C106.089 44.398 96.2455 44.4441 93.8484 44.4441C93.572 44.4441 93.412 44.6788 93.412 44.9523V48.9255H103.012V55.2548H87.5209V37.468H106.721V33.4486C106.721 33.1031 106.553 32.9866 106.285 32.9866H84.7208V32.9867ZM117.522 32.9867C113.925 32.9867 111.012 36.7104 111.012 41.3026V60.2444H139.522V44.9524C139.522 44.6641 139.339 44.398 139.122 44.398C138.925 44.398 129.084 44.4441 126.686 44.4441C126.411 44.4441 126.286 44.677 126.286 44.9523C126.286 45.2277 126.249 48.9255 126.249 48.9255H135.85V55.2548H120.358V37.468H139.522V33.4486C139.522 33.1031 139.389 32.9866 139.122 32.9866H117.522L117.522 32.9867ZM150.395 32.9867C146.792 32.9867 143.886 36.7122 143.886 41.3026V60.2444H172.141V56.2251C172.141 55.8573 171.968 55.6781 171.741 55.6707C171.519 55.6603 153.232 55.6707 153.232 55.6707V48.9256H169.269V44.9524C169.269 44.6105 169.135 44.398 168.869 44.398H153.232V37.5143H172.141V33.4487C172.141 33.0846 171.932 32.9867 171.705 32.9867H150.395ZM182.433 32.9867C178.837 32.9867 175.96 36.7104 175.96 41.3026V60.2444H185.269V48.9256C185.269 48.9256 195.21 59.751 194.869 59.4591C195.3 59.8989 195.499 60.2555 195.924 60.2444H206.142C207.148 60.2444 206.179 59.2743 206.179 59.2743L196.578 48.9256H199.124C202.238 48.9256 204.761 44.9025 204.761 40.933C204.761 36.9654 202.267 32.9867 199.16 32.9867H182.433H182.433ZM185.269 37.5143H197.851C198.929 37.5143 200.288 38.5824 200.288 40.9792C200.288 43.1432 198.846 44.4442 197.851 44.4442H185.269V37.5143Z" fill="black"/>
<path d="M46.1018 0.000244141V20.4205H204.761V0.000244141H46.1018ZM0.427734 32.9867V60.2445H31.5559V55.1625H15.0827V49.249H31.5559V44.0284H15.01V38.0687H31.5559V32.9867H0.427734Z" fill="#FF0310"/>
</svg>
