<svg width="208" height="48" viewBox="0 0 208 48" fill="none" xmlns="http://www.w3.org/2000/svg">
<path fill-rule="evenodd" clip-rule="evenodd" d="M134.773 0.523972C132.155 1.25805 129.929 3.10851 128.635 5.62578C127.745 7.358 127.591 8.21784 127.597 11.4303C127.609 18.4737 130.284 21.8709 136.666 22.9488C142.456 23.9269 147.889 22.5782 150.51 19.5119C152.399 17.3022 152.977 14.9725 152.761 10.4422C152.525 5.4971 151.268 3.28107 147.652 1.42894C145.481 0.317576 144.736 0.16591 140.989 0.0706506C138.405 0.00505526 135.997 0.180536 134.773 0.523972ZM162.022 0.747913C157.343 2.41078 155.005 6.7221 155.467 12.8338C155.773 16.8831 157.012 19.3536 159.622 21.1159C164.324 24.2904 173.996 23.8559 177.805 20.2995C179.622 18.6015 180.509 16.2681 180.707 12.657C181.039 6.60888 179.257 3.01826 174.952 1.05542C172.187 -0.2051 165.173 -0.371804 162.022 0.747913ZM7.89748 0.648476C7.74433 0.801392 7.61914 5.76366 7.61914 11.6756C7.61914 23.5383 7.47267 22.9313 10.3315 22.9313C13.1424 22.9313 13.0439 23.2396 13.0439 14.4469C13.0439 9.77709 13.1975 6.63437 13.4145 6.86667C13.6185 7.08518 14.9422 10.4548 16.3559 14.3554C17.7693 18.256 19.2277 21.7815 19.5966 22.1892C20.4742 23.1602 23.1152 23.1665 24.2185 22.2001C24.6946 21.7831 26.1931 18.2874 27.7071 14.0613L30.3614 6.65317L30.5701 14.3905C30.7391 20.6521 30.8981 22.203 31.4047 22.5231C32.3523 23.1218 35.4098 23.0102 35.951 22.3576C36.2861 21.9532 36.3938 18.6525 36.3149 11.1813L36.2035 0.578703L31.9455 0.460047C26.8003 0.316323 27.3565 -0.276125 24.2711 8.63231C23.0401 12.1874 21.9351 14.7786 21.777 14.4816C21.6209 14.1883 20.5109 11.1283 19.3112 7.68138C18.1111 4.23449 16.9381 1.17951 16.7044 0.892056C16.2533 0.336794 8.42493 0.120371 7.89748 0.648476ZM40.0555 0.894982C39.9449 1.1841 40.9155 4.65063 42.2125 8.59888C45.1844 17.646 47.0213 20.1913 50.9593 20.7202C51.9203 20.8493 52.7858 21.0829 52.8822 21.2391C53.2348 21.8103 50.3012 27.8238 48.5136 30.1944C46.246 33.2013 43.8892 35.0334 39.5506 37.1617C34.5957 39.5921 31.6421 40.2547 25.7713 40.2522C21.7089 40.2501 20.1729 40.0663 17.6341 39.2779C13.6594 38.0433 10.2781 36.3658 6.89723 33.95C3.94741 31.8426 3.11909 31.7845 1.07645 33.5435C-0.0143421 34.4831 -0.0460561 34.6051 0.522293 35.6689C1.51544 37.5268 5.21764 41.1287 7.95381 42.8998C21.1556 51.4427 40.2808 48.8799 51.1654 37.109C53.9417 34.1063 56.7993 29.1708 58.7217 24.0568C60.3984 19.5976 65.6792 1.21753 65.4096 0.780503C65.0312 0.168001 59.5496 0.264096 59.0485 0.892056C58.8194 1.17951 57.7311 4.55788 56.6303 8.40043C55.5295 12.2426 54.4896 15.6117 54.3193 15.8879C53.8424 16.6596 52.0092 15.2683 51.0674 13.4199C50.6305 12.5618 49.5701 9.60329 48.7114 6.84577C47.8526 4.08826 46.8644 1.5033 46.5152 1.10096C45.7294 0.195576 40.3889 0.0255307 40.0555 0.894982ZM81.57 0.864063C81.1982 1.23633 81.0622 4.14717 81.0622 11.7195C81.0622 21.5216 81.1047 22.089 81.8692 22.4988C83.0047 23.1072 85.8794 23.0374 86.4177 22.3881C86.6651 22.0894 86.923 20.2565 86.9902 18.3145L87.1129 14.7841L93.1465 14.6675C97.3319 14.5869 99.279 14.3947 99.5035 14.0408C100.017 13.2319 99.8924 11.3781 99.2907 10.8784C98.9677 10.6102 96.3438 10.3737 92.927 10.3048L87.1129 10.1882V7.47248V4.75675L94.6241 4.54785L102.135 4.33895V2.45882V0.578703L92.1066 0.467149C84.6571 0.384006 81.9477 0.485949 81.57 0.864063ZM105.366 0.853199C104.638 1.58269 104.621 21.7017 105.348 22.4299C106.059 23.1414 124.918 23.1414 125.629 22.4299C125.904 22.1541 126.129 21.3457 126.129 20.6333C126.129 18.4357 125.771 18.3354 117.917 18.3354H110.706L110.594 9.45705L110.481 0.578703L108.183 0.456286C106.756 0.380663 105.688 0.531072 105.366 0.853199ZM184.44 0.61923C183.889 1.17115 184.072 21.8679 184.634 22.4299C185.248 23.0453 188.068 23.0879 189.168 22.4988C189.873 22.1207 189.975 21.5964 189.975 18.3208V14.5752H192.594C195.824 14.5752 196.568 15.0561 198.79 18.5769C201.093 22.2289 202.072 22.9313 204.858 22.9313C206.435 22.9313 207.179 22.7508 207.341 22.3284C207.601 21.6503 204.324 16.3174 202.411 14.304L201.16 12.9883L202.46 12.7026C203.175 12.5455 204.414 11.7989 205.213 11.0443C206.523 9.80676 206.666 9.45079 206.665 7.42318C206.663 4.69575 205.727 2.98108 203.475 1.57934C201.938 0.622153 201.495 0.572853 193.307 0.445005C188.599 0.371472 184.609 0.450019 184.44 0.61923ZM144.884 5.5698C146.586 7.20258 147.138 9.11487 146.894 12.5321C146.554 17.2846 144.824 18.9621 140.262 18.9621C137.105 18.9621 135.7 18.2276 134.31 15.8516C133.201 13.9547 133.188 9.51262 134.286 7.26358C135.44 4.89797 137.269 4.04815 140.825 4.2253C143.245 4.34563 143.799 4.52905 144.884 5.5698ZM171.905 4.94727C173.91 6.17144 174.624 7.58028 174.851 10.7568C175.143 14.8342 174.059 17.2036 171.353 18.4018C169.9 19.0453 168.888 19.2115 167.457 19.0419C162.987 18.5117 161.402 16.5764 161.402 11.6497C161.401 7.93207 162.297 5.99178 164.534 4.86204C166.528 3.85513 170.184 3.89733 171.905 4.94727ZM199.707 5.50546C200.496 6.02312 200.824 6.59635 200.824 7.45828C200.824 9.50385 199.626 9.97931 194.472 9.97931H189.975V7.21637V4.45301L194.283 4.61261C197.481 4.73126 198.877 4.96106 199.707 5.50546Z" fill="black"/>
</svg>
