<svg width="207" height="56" viewBox="0 0 207 56" fill="none" xmlns="http://www.w3.org/2000/svg">
<path d="M205.516 54.1817V48.5691H201.749V50.2918H203.411V52.9592C203.189 53.1259 202.58 53.3482 201.749 53.3482C200.365 53.3482 199.423 52.5146 199.423 50.0139V48.5135C199.423 46.4018 200.309 45.1793 202.303 45.1793C203.577 45.1793 204.519 45.5683 205.239 45.8461L205.294 43.9567C204.408 43.5677 203.632 43.2899 202.137 43.2899C198.149 43.2899 197.097 45.7906 197.097 49.2915C197.097 52.7925 197.762 55.182 201.528 55.182C203.466 55.182 205.017 54.5707 205.516 54.1817ZM191.503 54.9597V43.5122H189.398L189.454 51.4588L185.134 43.5122H182.697V54.9597H184.801V47.0131L189.121 54.9597H191.503ZM176.493 43.5122H174.222V54.9597H176.493V43.5122ZM168.739 43.5122H166.468L163.921 52.9592L161.428 43.5677H158.991L162.481 55.0153H165.361L168.739 43.5122ZM153.508 43.5122H151.237V54.9597H153.508V43.5122ZM145.699 54.9597V53.1259H141.489V43.5122H139.219V54.9597H145.699ZM121.993 46.9575C121.993 48.0134 121.329 48.6802 119.944 48.6802H118.559V45.2904H120.055C121.44 45.2904 121.993 45.9017 121.993 46.9575ZM124.874 54.9597L123.157 50.8475C122.769 50.0695 122.326 49.7916 122.16 49.7916C123.378 49.4026 124.43 48.4024 124.43 46.8464C124.43 44.4013 122.824 43.5122 120.332 43.5122H116.399V54.9597H118.67V50.5696H119.778C120.332 50.5696 120.664 50.9586 120.886 51.5699L122.27 54.9597H124.874ZM108.313 49.9584C108.313 52.1812 107.538 53.2926 105.876 53.2926C104.27 53.2926 103.55 52.1812 103.55 49.9584V48.4579C103.55 46.2351 104.381 45.1237 105.987 45.1237C107.593 45.1237 108.313 46.2351 108.313 48.4579V49.9584ZM110.584 49.2359C110.584 45.6794 109.919 43.2343 105.987 43.2343C102.11 43.2343 101.224 45.5683 101.224 49.2359C101.224 52.7925 101.888 55.2376 105.821 55.2376C109.753 55.182 110.584 52.7925 110.584 49.2359ZM96.0728 45.4016V43.5677H89.7034V55.0153H91.9742V50.5696H95.7404V48.6802H91.9742V45.4016H96.0728ZM75.1368 51.681C75.1368 49.8472 74.0845 48.9025 72.2568 48.1801L71.8137 48.0134C70.7613 47.6244 70.1521 47.2354 70.1521 46.4018C70.1521 45.5127 70.8167 45.0126 71.8691 45.0126C72.9214 45.0126 73.8076 45.4016 74.5276 45.6794L74.583 43.7344C73.8076 43.4566 72.9214 43.1231 71.7029 43.1231C69.2105 43.1231 67.7705 44.5124 67.7705 46.2907C67.7705 48.2357 68.7674 49.1804 70.5398 49.8472L70.9829 50.0139C71.9798 50.4029 72.6999 50.8475 72.6999 51.6255C72.6999 52.459 72.0906 53.1259 70.6506 53.1259C69.5982 53.1259 68.6013 52.7369 67.7705 52.2923L67.6043 54.404C68.4351 54.793 69.4875 55.0709 70.7613 55.0709C73.6968 55.182 75.1368 53.626 75.1368 51.681ZM59.6841 46.9575C59.6841 48.0134 59.0195 48.6802 57.6348 48.6802H56.2502V45.2904H57.7456C59.1303 45.2904 59.6841 45.9017 59.6841 46.9575ZM62.5088 54.9597L60.7919 50.8475C60.4042 50.0695 59.9611 49.7916 59.7949 49.7916C61.0134 49.4026 62.0657 48.4024 62.0657 46.8464C62.0657 44.4013 60.4595 43.5122 57.9672 43.5122H54.0348V54.9597H56.3056V50.5696H57.4133C57.9672 50.5696 58.2995 50.9586 58.521 51.5699L59.9057 54.9597C59.9611 54.9597 62.5088 54.9597 62.5088 54.9597ZM45.893 49.9584C45.893 52.1812 45.1176 53.2926 43.456 53.2926C41.8498 53.2926 41.1298 52.1812 41.1298 49.9584V48.4579C41.1298 46.2351 41.9606 45.1237 43.5668 45.1237C45.173 45.1237 45.893 46.2351 45.893 48.4579V49.9584ZM48.2746 49.2359C48.2746 45.6794 47.61 43.2343 43.6776 43.2343C39.8005 43.2343 38.9144 45.5683 38.9144 49.2359C38.9144 52.7925 39.579 55.2376 43.5114 55.2376C47.4438 55.182 48.2746 52.7925 48.2746 49.2359ZM31.2711 49.9584C31.2711 52.1812 30.4957 53.2926 28.8341 53.2926C27.2279 53.2926 26.5079 52.1812 26.5079 49.9584V48.4579C26.5079 46.2351 27.3387 45.1237 28.9449 45.1237C30.5511 45.1237 31.2711 46.2351 31.2711 48.4579V49.9584ZM33.5973 49.2359C33.5973 45.6794 32.9327 43.2343 29.0003 43.2343C25.0679 43.2343 24.2371 45.5683 24.2371 49.2359C24.2371 52.7925 24.9017 55.2376 28.8341 55.2376C32.7665 55.182 33.5973 52.7925 33.5973 49.2359ZM19.2523 54.9597V53.1259H15.043V43.5122H12.7722V54.9597H19.2523ZM7.06739 45.4016V43.5677H0.697998V55.0153H2.96882V50.5696H6.73508V48.6802H2.96882V45.4016H7.06739Z" fill="#004376"/>
<path d="M198.205 30.5086L192.887 21.006L187.57 30.5086H178.93L188.29 15.0043L179.706 0.500396H188.235L192.998 9.00271L197.651 0.500396H206.125L197.54 15.0043L206.9 30.5086H198.205Z" fill="#004376"/>
<path d="M159.157 30.5086V0.500396H176.382L180.149 6.72431H166.801V11.948H176.881V18.1163H166.801V24.3402H179.484L175.662 30.5086H159.157Z" fill="#004376"/>
<path d="M141.378 30.6198V7.05777H133.901V0.50043H156.443V7.05777H148.966V30.6198H141.378Z" fill="#004376"/>
<path d="M37.8068 6.33532H34.6498V13.8929H37.6961C40.7977 13.8929 42.2377 12.3925 42.2377 10.003C42.2377 7.66901 41.0746 6.33532 37.8068 6.33532ZM42.57 30.2863L39.2469 21.8951C38.6376 20.2836 37.8622 19.45 36.6991 19.45H34.6498V30.2863H27.4496V0.6671H38.3607C44.7301 0.6671 49.3825 2.88994 49.3825 9.39171C49.3825 13.6151 46.4471 16.0602 43.6224 17.0605V17.116C43.6224 17.116 45.0624 17.505 46.2809 20.1724L50.7118 30.3419H42.57V30.2863Z" fill="#004376"/>
<path d="M96.6822 30.2863L86.6019 11.5034H86.5465L86.6019 30.2863H80.1217V0.667066H87.765L97.7899 19.45H97.9007L97.7345 0.667066H104.325V30.2863H96.6822Z" fill="#004376"/>
<path d="M69.543 13.7262C69.543 8.28029 67.8814 5.77961 64.3367 5.77961C60.8474 5.77961 59.0751 8.28029 59.0751 13.7262V17.2827C59.0751 22.7287 60.7367 25.2294 64.2814 25.2294C67.7707 25.2294 69.543 22.7287 69.543 17.2827V13.7262ZM64.1152 31.0087C53.7026 31.0087 51.8195 25.1182 51.8195 15.4489C51.8195 5.89075 54.0903 0.000244141 64.5583 0.000244141C74.9709 0.000244141 76.854 5.89075 76.854 15.4489C76.9094 25.0627 74.6385 31.0087 64.1152 31.0087Z" fill="#004376"/>
<path d="M125.317 13.7262C125.317 8.28029 123.655 5.77961 120.11 5.77961C116.621 5.77961 114.849 8.28029 114.849 13.7262V17.2827C114.849 22.7287 116.51 25.2294 120.055 25.2294C123.544 25.2294 125.317 22.7287 125.317 17.2827V13.7262ZM119.889 31.0087C109.476 31.0087 107.593 25.1182 107.593 15.4489C107.593 5.89075 109.864 0.000244141 120.332 0.000244141C130.745 0.000244141 132.628 5.89075 132.628 15.4489C132.628 25.0627 130.357 31.0087 119.889 31.0087Z" fill="#004376"/>
<path d="M16.3724 30.2863C12.7723 25.5072 8.00915 18.0607 8.00915 18.0607H7.95376V30.2863H0.753576V0.667066H7.95376V12.7815H8.00915L15.9294 0.667066H24.2373L14.2124 14.8932C14.2124 14.8932 18.9756 21.9507 25.4004 30.2863H16.3724Z" fill="#004376"/>
</svg>
