<svg width="250" height="60" viewBox="0 0 250 60" fill="none" xmlns="http://www.w3.org/2000/svg">
<path fill-rule="evenodd" clip-rule="evenodd" d="M18.4198 48.2849C8.23719 48.2849 0 40.0843 0 29.9469C0 19.8095 8.23719 11.6089 18.4198 11.6089C24.4351 11.6089 29.7715 14.4707 33.1319 18.9029H24.7113L11.0931 36.5816V40.8673H18.4196V32.7904L24.7113 40.8673H33.1969L24.463 29.9469L33.1637 18.9449C35.4725 22.0084 36.8397 25.8169 36.8397 29.9469C36.8397 40.0843 28.6025 48.2849 18.4198 48.2849ZM18.4196 24.0953L11.0931 33.5733H3.64236V26.3205H11.0931V18.9029H18.4196V24.0953Z" fill="#D13239"/>
<path d="M47.1881 38.2712C47.0639 38.1475 47.0639 37.9003 47.1881 37.7354L49.6717 34.892C49.7959 34.7684 49.92 34.7684 50.2098 34.892C51.6585 36.0459 53.604 37.1173 55.9634 37.1173C58.3228 37.1173 59.606 36.0871 59.606 34.5211C59.606 33.2024 58.8195 32.4195 56.2118 32.0486L54.8872 31.925C50.4581 31.2656 47.9746 29.2052 47.9746 25.2903C47.9746 21.2518 50.9963 18.532 55.7978 18.532C58.6539 18.532 61.4273 19.4386 63.2486 20.881C63.3727 21.0046 63.4969 21.1282 63.2486 21.4167L61.3031 24.4249C61.1789 24.5486 61.0547 24.5486 60.9306 24.5486C59.2334 23.5183 57.6605 22.859 55.8392 22.859C53.8938 22.859 52.8175 23.8892 52.8175 25.2079C52.8175 26.5266 53.7282 27.3096 56.2118 27.6804L57.3708 27.8041C61.9654 28.4634 64.2834 30.5239 64.2834 34.4387C64.2834 38.3536 61.2617 41.3206 55.6737 41.3206C52.2794 41.2794 48.8852 39.8371 47.1881 38.2712Z" fill="#55565A"/>
<path d="M83.1172 40.8673C82.8688 40.8673 82.7446 40.7437 82.7446 40.6201L78.9365 26.9387L75.0041 40.6201C75.0041 40.7437 74.88 40.8673 74.6316 40.8673H71.3616C71.2374 40.8673 71.1132 40.7437 70.989 40.6201L65.2354 19.2738C65.2354 19.1502 65.2354 19.0266 65.4838 19.0266H69.6645C69.9128 19.0266 70.037 19.1502 70.037 19.2738L73.1829 33.0788L77.1152 19.2738C77.1152 19.1502 77.2394 19.0266 77.4877 19.0266H80.3438C80.468 19.0266 80.5922 19.1502 80.7164 19.2738L84.6487 33.0788L87.6704 19.2738C87.6704 19.0266 87.7946 19.0266 88.0429 19.0266H92.2236C92.472 19.0266 92.472 19.1502 92.472 19.2738L86.9253 40.6201C86.9253 40.7437 86.8011 40.8673 86.5528 40.8673H83.1172Z" fill="#55565A"/>
<path d="M94.5002 19.2738C94.5002 19.1502 94.6244 19.0265 94.7486 19.0265H98.9292C99.1776 18.9029 99.3018 19.0266 99.3018 19.2738V40.6201C99.3018 40.7437 99.1776 40.8673 99.0534 40.8673H94.9141C94.79 40.8673 94.6658 40.7437 94.6658 40.6201V19.2738H94.5002Z" fill="#55565A"/>
<path d="M102.365 38.2712C102.241 38.1475 102.241 37.9003 102.365 37.7354L104.848 34.892C104.973 34.7684 105.097 34.7684 105.387 34.892C106.835 36.0459 108.781 37.1173 111.14 37.1173C113.5 37.1173 114.783 36.0871 114.783 34.5211C114.783 33.2024 113.996 32.4195 111.389 32.0486L110.23 31.925C105.8 31.2656 103.317 29.2052 103.317 25.2903C103.317 21.2518 106.339 18.532 111.14 18.532C113.996 18.532 116.77 19.4386 118.591 20.881C118.715 21.0046 118.839 21.1282 118.591 21.4167L116.645 24.4249C116.397 24.5486 116.273 24.5486 115.983 24.4249C114.286 23.3947 112.713 22.7354 110.892 22.7354C108.946 22.7354 107.87 23.7656 107.87 25.0843C107.87 26.403 108.781 27.1859 111.264 27.5568L112.423 27.6804C117.018 28.3398 119.336 30.4002 119.336 34.3151C119.336 38.2299 116.314 41.197 110.726 41.197C107.332 41.2794 104.062 39.8371 102.365 38.2712Z" fill="#55565A"/>
<path d="M121.695 38.2712C121.571 38.1475 121.571 37.9003 121.695 37.7354L124.179 34.892C124.303 34.7684 124.427 34.7684 124.717 34.892C126.166 36.0459 128.111 37.1173 130.471 37.1173C132.83 37.1173 134.113 36.0871 134.113 34.5211C134.113 33.2024 133.327 32.4195 130.719 32.0486L129.394 31.925C124.965 31.2656 122.482 29.2052 122.482 25.2903C122.482 21.2518 125.503 18.532 130.305 18.532C133.161 18.532 135.935 19.4386 137.756 20.881C137.88 21.0046 138.004 21.1282 137.756 21.4167L135.81 24.4249C135.686 24.5486 135.562 24.5486 135.438 24.5486C133.741 23.5183 132.168 22.859 130.346 22.859C128.401 22.859 127.325 23.8892 127.325 25.2079C127.325 26.5266 128.235 27.3096 130.719 27.6804L131.878 27.8041C136.473 28.4634 138.791 30.5239 138.791 34.4387C138.791 38.3536 135.769 41.3206 130.181 41.3206C126.787 41.2794 123.392 39.8371 121.695 38.2712Z" fill="#55565A"/>
<path d="M149.801 19.2738C149.801 19.1502 149.925 19.0266 150.049 19.0266H154.23C154.354 19.0266 154.479 19.1502 154.479 19.2738V28.7931L161.805 19.2738C161.929 19.0266 162.053 19.0266 162.343 19.0266H167.062C167.186 19.0266 167.31 19.2738 167.186 19.3974L160.522 27.7216L167.848 40.6201C167.973 40.8673 167.848 40.991 167.724 40.991H162.881C162.633 40.991 162.509 40.9909 162.343 40.7437L157.376 31.5129L154.52 35.1393V40.7437C154.52 40.8673 154.396 40.991 154.272 40.991H150.091C149.967 40.991 149.843 40.8673 149.843 40.7437V19.2738H149.801Z" fill="#55565A"/>
<path d="M182.212 40.8673C181.963 40.8673 181.839 40.7437 181.674 40.6201L177.866 32.5431H174.844C174.72 32.5431 174.72 32.5431 174.72 32.6667V40.4552C174.72 40.5789 174.595 40.7025 174.471 40.7025H170.291C170.166 40.7025 170.042 40.5789 170.042 40.4552V19.2326C170.042 19.109 170.166 18.9853 170.291 18.9853H179.066C183.661 18.9853 186.517 21.8288 186.517 25.7436C186.517 28.587 185.068 30.8123 182.584 31.8425L186.889 40.5789C187.013 40.7025 186.889 40.9497 186.641 40.9497H182.212V40.8673ZM181.963 25.7848C181.963 24.0953 180.804 23.065 178.942 23.065H175.009C174.885 23.065 174.885 23.065 174.885 23.1887V28.2574C174.885 28.381 174.885 28.381 175.009 28.381H178.942C180.763 28.5046 181.963 27.4744 181.963 25.7848Z" fill="#55565A"/>
<path d="M190.201 35.9222C189.663 34.3563 189.538 33.2025 189.538 29.9469C189.538 26.6914 189.663 25.3727 190.201 23.9716C191.36 20.4689 194.381 18.6557 198.314 18.6557C202.246 18.6557 205.226 20.4689 206.427 23.9716C206.965 25.5376 207.089 26.6914 207.089 29.9469C207.089 33.2025 206.965 34.5211 206.427 35.9222C205.268 39.425 202.246 41.2382 198.314 41.2382C194.381 41.2794 191.235 39.4662 190.201 35.9222ZM201.708 34.6448C201.956 33.8618 202.08 32.8316 202.08 29.9469C202.08 27.1035 201.956 26.0321 201.708 25.2491C201.17 23.6832 200.011 22.7766 198.189 22.7766C196.368 22.7766 195.168 23.6832 194.671 25.2491C194.423 26.0321 194.299 27.0623 194.299 29.9469C194.299 32.7904 194.423 33.8618 194.671 34.6448C195.209 36.2107 196.368 37.1173 198.189 37.1173C200.011 37.1173 201.17 36.2107 201.708 34.6448Z" fill="#55565A"/>
<path d="M210.318 19.2738C210.318 19.1502 210.442 19.0266 210.566 19.0266H214.498C214.747 19.0266 214.871 19.1502 215.036 19.2738L222.86 33.0788H222.984V19.2738C222.984 19.1502 223.108 19.0266 223.232 19.0266H226.875C226.999 19.0266 227.123 19.1502 227.123 19.2738V40.6201C227.123 40.7437 226.999 40.8673 226.875 40.8673H222.942C222.694 40.8673 222.57 40.7437 222.404 40.6201L214.581 26.8151H214.457V40.6201C214.457 40.7437 214.333 40.8673 214.208 40.8673H210.566C210.442 40.8673 210.318 40.7437 210.318 40.6201V19.2738Z" fill="#55565A"/>
<path d="M231.511 35.9222C230.973 34.3563 230.848 33.2025 230.848 29.9469C230.848 26.6914 230.973 25.3727 231.511 23.9716C232.67 20.4689 235.691 18.6557 239.624 18.6557C243.556 18.6557 246.536 20.4689 247.737 23.9716C248.275 25.5376 248.399 26.6914 248.399 29.9469C248.399 33.2025 248.275 34.5211 247.737 35.9222C246.578 39.425 243.556 41.2382 239.624 41.2382C235.691 41.2794 232.67 39.4662 231.511 35.9222ZM243.018 34.6448C243.266 33.8618 243.391 32.8316 243.391 29.9469C243.391 27.1035 243.266 26.0321 243.018 25.2491C242.48 23.6832 241.321 22.7766 239.5 22.7766C237.678 22.7766 236.478 23.6832 235.981 25.2491C235.733 26.0321 235.609 27.0623 235.609 29.9469C235.609 32.7904 235.733 33.8618 235.981 34.6448C236.519 36.2107 237.678 37.1173 239.5 37.1173C241.445 37.1173 242.604 36.2107 243.018 34.6448Z" fill="#55565A"/>
</svg>
