<svg width="27" height="28" viewBox="0 0 27 28" fill="none" xmlns="http://www.w3.org/2000/svg">
<path d="M20.894 4.73828C20.5831 4.73828 20.2791 4.83466 20.0205 5.01523C19.7619 5.1958 19.5604 5.45245 19.4414 5.75273C19.3224 6.05301 19.2912 6.38343 19.3519 6.70221C19.4126 7.02098 19.5623 7.3138 19.7822 7.54362C20.0021 7.77345 20.2823 7.92996 20.5873 7.99337C20.8923 8.05678 21.2084 8.02423 21.4958 7.89985C21.7831 7.77547 22.0286 7.56484 22.2014 7.2946C22.3742 7.02435 22.4664 6.70663 22.4664 6.38161C22.4664 5.94577 22.3007 5.52778 22.0059 5.2196C21.711 4.91141 21.3111 4.73828 20.894 4.73828ZM26.9214 8.05233C26.8959 6.9161 26.6923 5.79193 26.3187 4.72458C25.9855 3.81135 25.4669 2.9844 24.7987 2.30067C24.1499 1.59872 23.3568 1.06019 22.4795 0.725805C21.4609 0.323409 20.3841 0.105735 19.2955 0.0821666C17.9066 -7.65237e-08 17.4611 0 13.8971 0C10.3331 0 9.88757 -7.65237e-08 8.49866 0.0821666C7.41 0.105735 6.33319 0.323409 5.31464 0.725805C4.43894 1.06358 3.64655 1.60165 2.99542 2.30067C2.3238 2.97878 1.80853 3.80766 1.48858 4.72458C1.10357 5.78911 0.895296 6.91453 0.872746 8.05233C0.794128 9.50394 0.794128 9.96955 0.794128 13.6944C0.794128 17.4193 0.794128 17.8849 0.872746 19.3366C0.895296 20.4744 1.10357 21.5998 1.48858 22.6643C1.80853 23.5812 2.3238 24.4101 2.99542 25.0882C3.64655 25.7872 4.43894 26.3253 5.31464 26.6631C6.33319 27.0655 7.41 27.2832 8.49866 27.3067C9.88757 27.3889 10.3331 27.3889 13.8971 27.3889C17.4611 27.3889 17.9066 27.3889 19.2955 27.3067C20.3841 27.2832 21.4609 27.0655 22.4795 26.6631C23.3568 26.3287 24.1499 25.7902 24.7987 25.0882C25.4699 24.407 25.9889 23.5794 26.3187 22.6643C26.6923 21.597 26.8959 20.4728 26.9214 19.3366C26.9214 17.8849 27 17.4193 27 13.6944C27 9.96955 27 9.50394 26.9214 8.05233ZM24.5629 19.1722C24.5533 20.0415 24.4027 20.9028 24.1174 21.7194C23.9082 22.3154 23.5721 22.8539 23.1346 23.2942C22.7096 23.7469 22.1955 24.0973 21.6278 24.3213C20.8465 24.6195 20.0224 24.777 19.1907 24.7869C17.8804 24.8554 17.3956 24.8691 13.9495 24.8691C10.5034 24.8691 10.0186 24.8691 8.7083 24.7869C7.84468 24.8038 6.98474 24.6649 6.16633 24.3761C5.62359 24.1407 5.13298 23.7911 4.72501 23.349C4.29011 22.9091 3.95828 22.3701 3.75539 21.7742C3.43549 20.9459 3.25806 20.065 3.23128 19.1722C3.23128 17.8028 3.15266 17.2961 3.15266 13.6944C3.15266 10.0928 3.15266 9.58611 3.23128 8.21667C3.23715 7.32797 3.39238 6.44727 3.68988 5.61472C3.92055 5.03669 4.27462 4.52144 4.72501 4.10833C5.1231 3.63747 5.61508 3.26352 6.16633 3.01278C6.96503 2.71156 7.80682 2.55412 8.65589 2.54717C9.96619 2.54717 10.451 2.465 13.8971 2.465C17.3431 2.465 17.828 2.465 19.1382 2.54717C19.97 2.55714 20.7941 2.71458 21.5754 3.01278C22.1708 3.24374 22.7053 3.61923 23.1346 4.10833C23.564 4.529 23.8995 5.0433 24.1174 5.61472C24.4086 6.44862 24.5593 7.32896 24.5629 8.21667C24.6284 9.58611 24.6415 10.0928 24.6415 13.6944C24.6415 17.2961 24.6284 17.8028 24.5629 19.1722ZM13.8971 6.66919C12.5682 6.6719 11.2699 7.08623 10.1662 7.85981C9.06254 8.6334 8.20303 9.73154 7.69628 11.0155C7.18953 12.2994 7.05828 13.7115 7.31912 15.0734C7.57996 16.4352 8.22119 17.6857 9.16177 18.6669C10.1023 19.648 11.3001 20.3157 12.6036 20.5857C13.9072 20.8557 15.258 20.7157 16.4855 20.1836C17.713 19.6515 18.762 18.751 19.5001 17.596C20.2381 16.441 20.632 15.0833 20.632 13.6944C20.6337 12.7702 20.4606 11.8547 20.1226 11.0007C19.7846 10.1466 19.2884 9.37085 18.6624 8.71795C18.0365 8.06506 17.2933 7.54794 16.4755 7.19633C15.6576 6.84473 14.7814 6.66558 13.8971 6.66919ZM13.8971 18.2547C13.0341 18.2547 12.1905 17.9872 11.473 17.4862C10.7554 16.9851 10.1962 16.2729 9.86592 15.4396C9.53568 14.6063 9.44927 13.6894 9.61763 12.8048C9.78599 11.9202 10.2015 11.1076 10.8118 10.4699C11.422 9.8321 12.1994 9.39778 13.0458 9.22182C13.8922 9.04586 14.7695 9.13617 15.5668 9.48132C16.3641 9.82648 17.0456 10.411 17.525 11.1609C18.0044 11.9108 18.2603 12.7925 18.2603 13.6944C18.2603 14.2933 18.1475 14.8863 17.9282 15.4396C17.7089 15.9929 17.3875 16.4956 16.9824 16.919C16.5772 17.3425 16.0962 17.6784 15.5668 17.9076C15.0374 18.1367 14.4701 18.2547 13.8971 18.2547Z" fill="#FFCA0F"/>
</svg>
