<svg width="37" height="48" viewBox="0 0 37 48" fill="none" xmlns="http://www.w3.org/2000/svg">
<rect x="-0.509012" y="-0.292169" width="8.32972" height="45.2292" transform="matrix(-0.974555 0.22415 -0.297976 -0.954573 35.9079 45.4966)" fill="url(#paint0_linear)" stroke="#4A4A4A" stroke-width="0.8"/>
<path d="M14.3649 2.43875L0.51212 45.6124L8.62678 47.4787L22.6863 2.43875L14.3649 2.43875Z" fill="url(#paint1_linear)" stroke="#4A4A4A" stroke-width="0.8"/>
<path d="M20.8 9.27401C21.4742 12.5324 27.7405 24.8852 27.2726 29.9105C26.868 34.255 31.3179 41.8579 34.5542 45.8404M19.9909 11.8084C19.9909 15.4287 25.7555 25.2039 25.2499 28.8243C24.7442 32.4448 27.9872 39.1208 28.8907 40.7718C29.7942 42.4228 31.3179 43.3915 32.5316 46.2024M30.5089 46.9265C29.2953 45.4783 28.0816 44.7543 26.868 42.2199M31.3797 46.5745C28.0816 42.582 25.6544 36.0652 23.6317 32.0827M30.1043 26.2901C29.2953 31.3587 28.6018 30.9966 29.2953 33.1689C29.9887 35.3411 32.127 38.4082 34.5542 39.8564M22.0136 5.29153C22.4181 8.54992 24.4408 15.7908 28.0816 19.0492M19.5864 2.76047C16.8408 11.5714 15.9217 12.5825 13.7835 15.4149C11.6454 18.2474 9.07956 21.7881 10.7901 23.9124C11.9305 25.3287 14.1643 23.5584 15.494 20.3718C16.8237 17.1852 18.5106 8.54866 21.2045 2.76047M16.3501 2.76049C15.895 4.83075 14.9691 9.50608 11.0574 12.4218M17.9682 2.76053C17.9088 4.7679 14.9148 11.1191 11.4983 15.769C8.93246 20.0177 8.9082 23.403 8.34788 28.5161C7.64957 34.8884 2.21105 46.9011 2.41571 46.1409M4.21396 46.1409C6.92685 39.7678 9.78773 31.7018 11.9259 28.5152C14.064 25.3287 15.3469 23.9124 17.0575 20.7259M6.51378 46.9265C7.51614 45.5103 8.06396 43.5662 11.0574 40.0256M5.42757 46.5724C7.56573 43.3859 9.93483 35.2424 13.3559 32.0559M1.3822 45.5103C2.38001 43.1498 4.14654 37.9553 5.23088 34.5343C6.31523 31.1133 6.91088 28.294 6.91088 26.2237M12.073 23.2043C12.3774 23.1368 13.4999 21.962 13.8602 21.2468C14.4506 20.0751 15.494 17.571 13.825 18.413C13.3559 18.6497 12.8389 19.3224 12.7931 19.3963C11.6454 21.2468 11.4952 23.3325 12.073 23.2043Z" stroke="#4A4A4A" stroke-width="0.5"/>
<defs>
<linearGradient id="paint0_linear" x1="-4.00937" y1="6.40162" x2="18.9617" y2="53.0309" gradientUnits="userSpaceOnUse">
<stop offset="0.290425" stop-color="#B18E31"/>
<stop offset="0.953554" stop-color="#523F3F"/>
</linearGradient>
<linearGradient id="paint1_linear" x1="14.7582" y1="20.2316" x2="-41.1971" y2="5.37279" gradientUnits="userSpaceOnUse">
<stop stop-color="#F0C454"/>
<stop offset="0.277979" stop-color="#EAE5E5"/>
</linearGradient>
</defs>
</svg>
