<svg width="61" height="60" viewBox="0 0 61 60" fill="none" xmlns="http://www.w3.org/2000/svg">
<path opacity="0.8" fill-rule="evenodd" clip-rule="evenodd" d="M11.3838 6C8.90037 6 6.88718 8.01472 6.88718 10.5C6.88718 12.9853 8.90037 15 11.3838 15C13.8672 15 15.8804 12.9853 15.8804 10.5C15.8804 8.01472 13.8672 6 11.3838 6ZM0.891724 10.5C0.891724 4.70101 5.58917 4.47035e-08 11.3838 4.47035e-08C17.1784 4.47035e-08 21.8758 4.70101 21.8758 10.5C21.8758 16.299 17.1784 21 11.3838 21C5.58917 21 0.891724 16.299 0.891724 10.5ZM59.9683 0.87868C61.139 2.05025 61.139 3.94975 59.9683 5.12132L6.00917 59.1213C4.83848 60.2929 2.94042 60.2929 1.76974 59.1213C0.599052 57.9497 0.599052 56.0503 1.76974 54.8787L55.7289 0.87868C56.8995 -0.292893 58.7976 -0.292893 59.9683 0.87868ZM50.3542 45C47.8708 45 45.8577 47.0147 45.8577 49.5C45.8577 51.9853 47.8708 54 50.3542 54C52.8376 54 54.8508 51.9853 54.8508 49.5C54.8508 47.0147 52.8376 45 50.3542 45ZM39.8622 49.5C39.8622 43.701 44.5597 39 50.3542 39C56.1488 39 60.8463 43.701 60.8463 49.5C60.8463 55.299 56.1488 60 50.3542 60C44.5597 60 39.8622 55.299 39.8622 49.5Z" fill="#F9B247"/>
</svg>
