<svg width="91" height="60" viewBox="0 0 91 60" fill="none" xmlns="http://www.w3.org/2000/svg">
<path opacity="0.8" fill-rule="evenodd" clip-rule="evenodd" d="M90.0645 3.75C90.0645 1.67893 88.3868 0 86.3173 0H31.9835C29.914 0 28.2363 1.67893 28.2363 3.75V13.125H15.9242C14.7501 13.125 13.6438 13.6758 12.9356 14.6129L0.89109 30.5504C0.398911 31.2017 0.132584 31.9959 0.132584 32.8125V48.75C0.132584 50.8211 1.81025 52.5 3.87975 52.5H13.8873C15.4306 56.8694 19.5946 60 24.4891 60C29.3837 60 33.5477 56.8694 35.0909 52.5H56.9797C58.5229 56.8694 62.6869 60 67.5815 60C72.4761 60 76.6401 56.8694 78.1833 52.5H86.3173C88.3868 52.5 90.0645 50.8211 90.0645 48.75V3.75ZM78.1833 45C76.6401 40.6306 72.4761 37.5 67.5815 37.5C62.6869 37.5 58.5229 40.6306 56.9797 45H35.7306V7.5H82.5701V45H78.1833ZM28.2363 38.1402V20.625H17.7884L7.62691 34.0709V45H13.8873C15.4306 40.6306 19.5946 37.5 24.4891 37.5C25.803 37.5 27.0643 37.7256 28.2363 38.1402ZM67.5815 45C69.651 45 71.3286 46.679 71.3286 48.75C71.3286 50.821 69.651 52.5 67.5815 52.5C65.5121 52.5 63.8343 50.821 63.8343 48.75C63.8343 46.679 65.5121 45 67.5815 45ZM24.4891 45C26.5586 45 28.2363 46.679 28.2363 48.75C28.2363 50.821 26.5586 52.5 24.4891 52.5C22.4197 52.5 20.742 50.821 20.742 48.75C20.742 46.679 22.4197 45 24.4891 45Z" fill="#F9B247"/>
</svg>
