<svg width="27" height="29" viewBox="0 0 27 29" fill="none" xmlns="http://www.w3.org/2000/svg">
<path d="M23.9545 2.83009C23.2474 2.16668 20.3884 0.0507787 14.0179 0.0205679C14.0179 0.0205679 6.50742 -0.438623 2.84885 2.98235C0.809582 5.06078 0.0930521 8.09265 0.0171285 11.8653C-0.0599824 15.6282 -0.157259 22.6852 6.52521 24.6017H6.53115L6.52521 27.5212C6.52521 27.5212 6.48488 28.7042 7.24767 28.9447C8.17181 29.2347 8.71395 28.3357 9.59657 27.3702C10.0818 26.8397 10.7497 26.0554 11.2538 25.4585C15.8223 25.8476 19.3362 24.9558 19.7348 24.8241C20.6565 24.5172 25.8751 23.838 26.7257 16.7786C27.6012 9.50284 26.3022 4.90007 23.9521 2.82525V2.83009H23.9545ZM24.7279 16.2578C23.9983 22.1499 19.7644 22.5257 18.9981 22.7783C18.66 22.8894 15.5637 23.6701 11.6857 23.4127C11.6857 23.4127 8.78513 26.9666 7.8954 27.8898C7.75186 28.036 7.57391 28.0904 7.46714 28.065C7.30699 28.03 7.27259 27.8475 7.27259 27.5768L7.29038 22.736C7.27259 22.736 7.29038 22.736 7.29038 22.736C1.63051 21.1216 1.96979 15.1219 2.04097 11.9692C2.09317 8.83218 2.6792 6.2583 4.40647 4.517C7.50392 1.65189 13.8934 2.08571 13.8934 2.08571C19.2828 2.10504 21.8665 3.75933 22.4621 4.3164C24.448 6.04683 25.4622 10.1952 24.7208 16.2711L24.7279 16.2578V16.2578ZM8.44822 6.02025C8.73531 6.02025 8.99273 6.15196 9.19441 6.39606C9.19915 6.39848 9.88247 7.2359 10.179 7.64554C10.4578 8.03223 10.8327 8.64851 11.0225 8.9929C11.3606 9.60918 11.1459 10.24 10.8185 10.501L10.147 11.0448C9.80892 11.3215 9.85044 11.8338 9.85044 11.8338C9.85044 11.8338 10.8469 15.6487 14.547 16.6106C14.547 16.6106 15.0524 16.6577 15.3229 16.3134L15.8579 15.6258C16.1106 15.2814 16.7287 15.0639 17.3337 15.4071C17.6718 15.5883 18.2768 15.9702 18.6576 16.2578C19.0597 16.5478 19.8819 17.2559 19.8866 17.2559C20.2781 17.5834 20.3659 18.0885 20.1001 18.596V18.6154C19.8273 19.1048 19.4583 19.5579 18.9921 19.9941H18.9826C18.6101 20.3204 18.2364 20.5017 17.8628 20.5367C17.8272 20.5367 17.7738 20.556 17.7014 20.5367C17.5413 20.5367 17.3811 20.5017 17.2222 20.463V20.4461C16.6527 20.2829 15.7096 19.866 14.1425 18.9767C13.1282 18.3978 12.2752 17.8166 11.5457 17.2184C11.172 16.9103 10.7805 16.5659 10.3878 16.1671L10.2977 16.1333L10.2621 16.0971L10.2277 16.062C9.83501 15.6632 9.4981 15.2645 9.19441 14.8778C8.62498 14.1419 8.05555 13.2742 7.48731 12.2326C6.61537 10.6375 6.2061 9.67685 6.04595 9.09561H6.02697C5.97358 8.9337 5.93799 8.77056 5.95579 8.60742C5.93799 8.53372 5.95579 8.48055 5.95579 8.43705C5.99138 8.07574 6.18 7.69509 6.49911 7.29632H6.50505C6.92619 6.82505 7.38054 6.44561 7.86455 6.16889C8.05911 6.05893 8.25485 6.00577 8.4328 6.00577H8.45178L8.44822 6.02027L8.44822 6.02025ZM13.3062 5.19492H13.4438L13.5339 5.19733H13.5576L13.6632 5.20337H14.2694L14.4296 5.2215H14.5174L14.6953 5.24083H14.7309L14.8543 5.25896H14.8733L14.9611 5.27708C15.0156 5.27708 15.0512 5.29642 15.0856 5.29642H15.1936L15.2825 5.33146L15.3537 5.35079L15.4249 5.36892L15.4605 5.38704H15.5139L15.5684 5.40637H15.6028L15.6906 5.42571L15.744 5.44262L15.7986 5.46196L15.8698 5.48129L15.9054 5.49821C15.9409 5.49821 15.9765 5.51754 16.0133 5.51754L16.0655 5.53567L16.1201 5.555L16.2612 5.60817L16.3336 5.64563L16.4938 5.71812L16.5471 5.73625L16.6005 5.75558L16.7073 5.80996L16.7797 5.82808L16.8141 5.84621L16.9042 5.88367L16.9386 5.90058L17.011 5.93804L17.0644 5.95496L17.1178 5.99121L17.1877 6.02746L17.2423 6.0625L17.2779 6.08183L17.3503 6.11808L17.4025 6.15433L17.4914 6.20871L17.5448 6.22804L17.6326 6.28121L17.6516 6.29933L17.705 6.33679L17.8117 6.42621L17.8663 6.46246L17.9185 6.49871L17.9553 6.51562L18.0087 6.55308L18.0965 6.6425L18.1688 6.69687L18.2222 6.73313L18.2412 6.75125L18.2756 6.77058L18.3634 6.84429L18.4179 6.89746L18.4535 6.93371L18.5069 6.96875L18.5603 7.00621L18.5947 7.02433L18.7371 7.16933L18.8082 7.24304L18.9684 7.40617L19.0052 7.44121C19.0241 7.46054 19.0586 7.49558 19.0775 7.53183L19.1119 7.56808L19.3089 7.8025L19.3622 7.875C19.3789 7.89433 19.3789 7.91246 19.3967 7.91246L19.5034 8.07558L19.5568 8.12996L19.6636 8.27496L19.7537 8.41996L19.8071 8.52871L19.8771 8.65558L19.9305 8.76433L19.9495 8.79937L19.9839 8.87308L20.074 9.05433L20.1618 9.23437L20.1986 9.325C20.2686 9.48812 20.322 9.65127 20.3931 9.83253C20.4809 10.0682 20.5533 10.3207 20.6067 10.5938C20.6601 10.7932 20.6968 10.9745 20.7312 11.1738L20.7656 11.5001L20.819 11.8626C20.838 12.0088 20.8558 12.172 20.8558 12.3158C20.8724 12.462 20.8724 12.6058 20.8724 12.7496V13.0589C20.8724 13.0783 20.8653 13.094 20.8558 13.1133C20.8368 13.1496 20.819 13.1677 20.7834 13.2039C20.7585 13.2221 20.7253 13.2595 20.6885 13.2595C20.6541 13.2764 20.6186 13.2764 20.5818 13.2764H20.5284C20.494 13.2764 20.4584 13.2595 20.4216 13.2414C20.3872 13.2221 20.3493 13.2051 20.3338 13.1677C20.3149 13.1326 20.2805 13.094 20.2615 13.0589C20.2425 13.0239 20.2247 12.9864 20.2247 12.9502V12.5164C20.2081 12.2638 20.1903 12.0028 20.1547 11.7442C20.1357 11.5678 20.1013 11.401 20.0823 11.2367C20.0823 11.1473 20.0634 11.0603 20.0479 10.9841L20.0135 10.8029L19.9685 10.6325L19.9495 10.5238L19.8961 10.3425C19.8617 10.1975 19.8083 10.0525 19.7549 9.90748C19.7205 9.79753 19.6826 9.70811 19.6304 9.61868L19.5959 9.52684L19.4358 9.20058L19.399 9.1462C19.3267 8.98308 19.2389 8.81993 19.1321 8.67372L19.0787 8.5843H18.8403L18.7643 8.47435C18.6991 8.3668 18.6291 8.27497 18.5508 8.18554L18.4025 8.00429L18.3847 7.98496L18.3302 7.91608L18.2886 7.86171L18.1997 7.77229L18.1819 7.73604L18.0988 7.66354L18.0454 7.60796L17.947 7.51733L17.8995 7.47262L17.845 7.41825L17.8272 7.39891C17.8082 7.38079 17.7738 7.34454 17.7382 7.32641L17.648 7.2515L17.6124 7.23337L17.5401 7.17779L17.4523 7.10529L17.3989 7.06179L17.3633 7.04246L17.2921 6.97841C17.2921 6.95908 17.2732 6.95908 17.2554 6.95908L17.221 6.92404L17.2032 6.90471V6.889L17.1676 6.87208L17.0952 6.82737L17.043 6.78991L16.954 6.73554L16.8829 6.68116L16.8485 6.66183L16.8105 6.64612H16.7037L16.6812 6.62679L16.6041 6.5845L16.5934 6.56758L16.5578 6.54825L16.5044 6.52287H16.4902L16.4368 6.50354L16.4071 6.48541L16.3538 6.46729L16.3419 6.454L16.3063 6.43466L16.2434 6.39962L16.2078 6.3815L16.1011 6.34525L16.0133 6.31021L15.8508 6.29087L15.7986 6.25583C15.7808 6.24375 15.763 6.2365 15.744 6.2365L15.7096 6.21837C15.6752 6.20508 15.6562 6.19904 15.6206 6.18212L15.585 6.16279H15.5506L15.4783 6.12775L15.4439 6.10841L15.3905 6.09029H15.2813C15.2719 6.09029 15.2588 6.08425 15.2458 6.08183H15.139L15.0856 6.0625H15.0678L15.0144 6.04316H14.9658C14.9361 6.02625 14.9124 6.02625 14.8827 6.02625L14.8709 6.00691L14.7997 5.98879C14.7641 5.96946 14.7333 5.96946 14.7001 5.96946L14.6467 5.95133L14.5874 5.932L14.534 5.91508L14.4616 5.89575H14.3892L14.1769 5.86916H14.0701L13.9325 5.85104H13.8424L13.7617 5.84137H13.7261L13.662 5.82204H13.3239L13.3121 5.80391H13.2397C13.2041 5.80391 13.1638 5.78579 13.1329 5.76766C13.0974 5.74833 13.0606 5.73262 13.0369 5.69516L13.0013 5.63958C12.9669 5.60454 12.9669 5.56708 12.9479 5.53083C12.9313 5.497 12.9313 5.45954 12.9313 5.42329C12.9313 5.38704 12.9313 5.35079 12.9491 5.31454C12.968 5.2795 12.9835 5.24204 13.0214 5.22391C13.0392 5.18766 13.0736 5.17075 13.1092 5.15141C13.1436 5.13208 13.1816 5.11516 13.216 5.11516H13.2883L13.3061 5.19491L13.3062 5.19492ZM13.9634 7.09693L14.0073 7.10055L14.0796 7.10781C14.0891 7.10781 14.101 7.1078 14.114 7.11143C14.1401 7.11143 14.1674 7.11626 14.203 7.11868L14.2742 7.12835L14.3027 7.14768L14.356 7.1658L14.413 7.18393L14.4664 7.20326H14.502L14.5518 7.22139L14.6348 7.23951L14.7013 7.25885L14.7321 7.27576H14.8187L14.9599 7.3096L15.0144 7.32772L15.0678 7.34585L15.1212 7.36518C15.1212 7.36518 15.139 7.36518 15.139 7.38331L15.1936 7.40143L15.2458 7.42076L15.2992 7.4401C15.3169 7.4401 15.3347 7.45701 15.3537 7.45701C15.362 7.45701 15.3703 7.47635 15.3834 7.47635L15.4593 7.5126H15.4937L15.6005 7.54885L15.6598 7.58389L15.7144 7.62014L15.8425 7.67451L15.9137 7.69264L15.9504 7.7301C16.0038 7.74701 16.0572 7.78326 16.1106 7.80139L16.1675 7.83764L16.2245 7.87389L16.2826 7.90893C16.336 7.94518 16.3799 7.96451 16.4261 8.00076L16.4605 8.01768L16.5092 8.05514L16.5353 8.07326L16.6243 8.12764L16.6682 8.16389L16.7453 8.21585L16.7797 8.23397L16.8153 8.2521L16.8698 8.28835L16.941 8.34393C16.9588 8.36085 16.9671 8.36085 16.9813 8.37897C16.9932 8.3971 17.0003 8.3971 17.011 8.41522L17.0501 8.45147L17.0929 8.48651L17.1284 8.52276L17.183 8.57835L17.2174 8.6146L17.2364 8.63393L17.3432 8.74147L17.3621 8.7608C17.3621 8.77893 17.3799 8.79706 17.3965 8.79706L17.4155 8.81276L17.4689 8.86835L17.5033 8.92272L17.5389 8.95897L17.5923 9.03147L17.6469 9.08706L17.7536 9.23085L17.7702 9.26589L17.8426 9.35772L17.8616 9.39276L17.8794 9.43022L17.8972 9.46526L17.9161 9.50151C17.9351 9.51964 17.9351 9.53776 17.9505 9.57401L18.0016 9.66585L18.0205 9.68397L18.0549 9.75768L18.0917 9.81085C18.1083 9.82897 18.1083 9.84589 18.1261 9.86522L18.1617 9.9196L18.1973 9.99331L18.2317 10.0646L18.2507 10.1202C18.2685 10.1733 18.3041 10.2108 18.3219 10.2652C18.3219 10.2833 18.3397 10.3002 18.3397 10.3196L18.393 10.4633L18.4654 10.699C18.4654 10.7183 18.4832 10.7533 18.4832 10.7727L18.5378 10.9358L18.59 11.1533L18.6445 11.4433C18.6611 11.5328 18.6611 11.6065 18.6789 11.6983C18.6979 11.8421 18.7145 11.9859 18.7145 12.1321L18.7323 12.3859V12.5853C18.7323 12.6046 18.7323 12.6203 18.7145 12.6396L18.6623 12.6916C18.6279 12.7194 18.609 12.746 18.5745 12.7653C18.539 12.7834 18.5022 12.8004 18.4678 12.8136C18.431 12.833 18.3788 12.833 18.3432 12.833C18.3088 12.833 18.2709 12.8136 18.2364 12.7967C18.2175 12.7967 18.2009 12.7774 18.1831 12.7713C18.1463 12.7544 18.1107 12.7242 18.0941 12.6928C18.0585 12.6566 18.0395 12.6203 18.0395 12.5829L18.0229 12.5297V12.1515C18.0229 11.9907 18.0039 11.8421 17.9861 11.6862C17.9683 11.5231 17.9339 11.3418 17.8984 11.1787C17.8639 11.0699 17.845 10.9612 17.8094 10.8645L17.7738 10.7546L17.7394 10.6639L17.7204 10.6277L17.667 10.4827L17.6136 10.3739L17.5247 10.1939L17.4428 10.0489V10.0259L17.4084 9.96914L17.3728 9.92322L17.3194 9.8326L17.2649 9.75889L17.1593 9.6151C17.1047 9.54139 17.0525 9.4701 16.9908 9.40001C16.9742 9.38189 16.9564 9.36497 16.9564 9.34564L16.9208 9.3106L16.9007 9.29126L16.8651 9.27435L16.8295 9.24172V9.0653L16.6883 8.92876L16.5993 8.8466V8.82968L16.5638 8.79222L16.5187 8.75718L16.5009 8.73785C16.5009 8.71972 16.4819 8.71972 16.4665 8.71972L16.4119 8.70039L16.3941 8.68226L16.3217 8.62789L16.3051 8.60855L16.2862 8.59043C16.2719 8.5723 16.2589 8.5723 16.2506 8.5723L16.1794 8.51793L16.1604 8.4986L16.0892 8.46356L16.0762 8.44422L16.0228 8.40918L15.9872 8.38985L15.9516 8.3548L15.9172 8.31735H15.8982C15.8638 8.2823 15.8271 8.26418 15.7737 8.24485L15.7215 8.2086L15.6859 8.19168L15.6669 8.17235L15.6135 8.1361L15.5613 8.11797L15.4901 8.08172L15.4356 8.0636L15.4178 8.04426L15.3514 8.02735V8.01285L15.2434 7.9766L15.1722 7.94035L15.1366 7.92222H15.0655C15.0299 7.9041 15.0121 7.9041 14.9765 7.88597H14.9243L14.8709 7.86664H14.8187L14.7641 7.84972L14.7297 7.83039H14.6574L14.585 7.81226L14.5506 7.79293H14.3549L14.273 7.7748H13.8566L13.802 7.75547C13.7676 7.73855 13.7309 7.72043 13.6953 7.68297C13.6787 7.64672 13.6419 7.61047 13.6241 7.57543C13.6063 7.53797 13.5885 7.50172 13.5885 7.46547V7.35672C13.5956 7.30114 13.6075 7.2661 13.6241 7.22985C13.6336 7.21172 13.6419 7.1936 13.6597 7.17547C13.681 7.13922 13.7131 7.10297 13.7486 7.08485C13.7664 7.06672 13.7842 7.06672 13.8008 7.0498C13.8376 7.03047 13.8732 7.03047 13.9088 7.03047H13.98L13.9634 7.09693H13.9634ZM14.502 9.0654C14.5197 9.0654 14.5375 9.0654 14.5541 9.07024C14.5731 9.07024 14.5909 9.07024 14.6087 9.07265L14.6704 9.0787C14.7938 9.08957 14.9231 9.1077 15.0477 9.13428L15.171 9.16207L15.2019 9.17174L15.3371 9.20678L15.4071 9.23094L15.4617 9.25028C15.5151 9.26719 15.5696 9.30465 15.6218 9.32278L15.6408 9.3409L15.712 9.37715L15.8187 9.43274L15.8532 9.44965C15.8721 9.46899 15.8899 9.46899 15.9077 9.4859C15.9255 9.50524 15.9611 9.52215 15.9789 9.54028C16.0513 9.57653 16.1035 9.6309 16.1568 9.66715L16.2814 9.7759L16.3882 9.88586L16.4605 9.97528L16.4949 10.0103L16.5305 10.0478L16.5827 10.1203L16.6907 10.2834L16.7797 10.4465L16.8508 10.5915L16.9054 10.7184C16.9576 10.8441 16.9766 10.954 17.0122 11.0797C17.0466 11.1897 17.0656 11.3166 17.0834 11.4241L17.1012 11.6054L17.1201 11.7697V11.841C17.1201 11.8954 17.1012 11.9316 17.0845 11.9679C17.0667 12.0029 17.03 12.0573 16.9956 12.0766C16.96 12.1116 16.9232 12.131 16.871 12.1503C16.8366 12.1672 16.7998 12.1672 16.7642 12.1672C16.7298 12.1672 16.6931 12.1672 16.6575 12.1503L16.5341 12.0947C16.4985 12.0585 16.4629 12.0404 16.4261 11.9848C16.4083 11.9497 16.3917 11.9123 16.3728 11.8591V11.6585L16.355 11.5316L16.3372 11.3878L16.3182 11.261L16.2992 11.1885C16.2992 11.1703 16.2826 11.1341 16.2826 11.116C16.247 10.9697 16.1758 10.8259 16.1047 10.6809L16.0323 10.6084L15.9765 10.5359L15.9232 10.4816L15.9054 10.4453L15.8164 10.3728L15.744 10.2991L15.674 10.2447C15.655 10.2266 15.6384 10.2266 15.6017 10.2097L15.4949 10.136L15.4225 10.0997L15.3881 10.0816H15.3691L15.279 10.0441L15.1722 10.0079L15.0655 9.98977H14.9765L14.9243 9.97164L14.8828 9.96319H14.8294L14.7582 9.94385H14.4557L14.4379 9.85323H14.3916C14.356 9.84839 14.3264 9.8351 14.2967 9.81819C14.2552 9.79281 14.2208 9.76381 14.19 9.72152C14.1686 9.68648 14.1496 9.64781 14.1366 9.61277C14.1271 9.57773 14.1223 9.54027 14.1223 9.50402C14.1223 9.45931 14.1223 9.41339 14.1401 9.36748C14.1579 9.32035 14.1757 9.28289 14.2113 9.24664L14.2837 9.19227C14.3181 9.17294 14.356 9.15602 14.3904 9.15602L14.464 9.06539H14.502L14.502 9.0654Z" fill="#FFCA0F"/>
</svg>
